<svg width="192" height="192" viewBox="0 0 192 192" fill="none" xmlns="http://www.w3.org/2000/svg">
<rect width="192" height="192" fill="#040303"/>
<path d="M90.7969 110.219C90.7969 112.625 90.4844 114.797 89.8594 116.734C89.2656 118.641 88.4688 120.328 87.4688 121.797C86.4688 123.266 85.2969 124.516 83.9531 125.547C82.6094 126.578 81.2188 127.422 79.7812 128.078C78.3438 128.734 76.875 129.219 75.375 129.531C73.9062 129.844 72.5156 130 71.2031 130H24.1875V117.812H71.2031C73.5469 117.812 75.3594 117.125 76.6406 115.75C77.9531 114.375 78.6094 112.531 78.6094 110.219C78.6094 109.094 78.4375 108.062 78.0938 107.125C77.75 106.188 77.25 105.375 76.5938 104.688C75.9688 104 75.1875 103.469 74.25 103.094C73.3438 102.719 72.3281 102.531 71.2031 102.531H43.1719C41.2031 102.531 39.0781 102.188 36.7969 101.5C34.5156 100.781 32.3906 99.6406 30.4219 98.0781C28.4844 96.5156 26.8594 94.4688 25.5469 91.9375C24.2656 89.4062 23.625 86.3125 23.625 82.6562C23.625 79 24.2656 75.9219 25.5469 73.4219C26.8594 70.8906 28.4844 68.8438 30.4219 67.2812C32.3906 65.6875 34.5156 64.5469 36.7969 63.8594C39.0781 63.1406 41.2031 62.7812 43.1719 62.7812H84.6562V74.9688H43.1719C40.8594 74.9688 39.0469 75.6719 37.7344 77.0781C36.4531 78.4844 35.8125 80.3438 35.8125 82.6562C35.8125 85 36.4531 86.8594 37.7344 88.2344C39.0469 89.5781 40.8594 90.25 43.1719 90.25H71.2031H71.2969C72.6094 90.2812 74 90.4688 75.4688 90.8125C76.9375 91.125 78.3906 91.625 79.8281 92.3125C81.2969 93 82.6875 93.875 84 94.9375C85.3125 95.9688 86.4688 97.2188 87.4688 98.6875C88.5 100.156 89.3125 101.844 89.9062 103.75C90.5 105.656 90.7969 107.812 90.7969 110.219Z" fill="#FE6C06"/>
<path d="M168 101.875C168 105.969 167.281 109.734 165.844 113.172C164.438 116.609 162.484 119.578 159.984 122.078C157.484 124.547 154.516 126.484 151.078 127.891C147.641 129.297 143.906 130 139.875 130H106.969C106.094 130 105.281 129.844 104.531 129.531C103.781 129.219 103.125 128.797 102.562 128.266C102.031 127.703 101.609 127.047 101.297 126.297C100.984 125.547 100.828 124.734 100.828 123.859V68.9219C100.828 68.0781 100.984 67.2812 101.297 66.5312C101.609 65.7812 102.031 65.125 102.562 64.5625C103.125 64 103.781 63.5625 104.531 63.25C105.281 62.9375 106.094 62.7812 106.969 62.7812H139.875C143.906 62.7812 147.641 63.4844 151.078 64.8906C154.516 66.2969 157.484 68.25 159.984 70.75C162.484 73.2188 164.438 76.1875 165.844 79.6562C167.281 83.0938 168 86.8438 168 90.9062V101.875ZM155.812 90.9062C155.812 88.5312 155.422 86.3594 154.641 84.3906C153.891 82.4219 152.812 80.75 151.406 79.375C150 77.9688 148.312 76.8906 146.344 76.1406C144.406 75.3594 142.25 74.9688 139.875 74.9688H113.016V117.812H139.875C142.25 117.812 144.406 117.438 146.344 116.688C148.312 115.906 150 114.828 151.406 113.453C152.812 112.047 153.891 110.375 154.641 108.438C155.422 106.469 155.812 104.281 155.812 101.875V90.9062Z" fill="white"/>
</svg>
