<svg width="122" height="13" viewBox="0 0 122 13" fill="none" xmlns="http://www.w3.org/2000/svg">
<path d="M12.5947 8.89453C12.5947 9.3457 12.5361 9.75293 12.4189 10.1162C12.3076 10.4736 12.1582 10.79 11.9707 11.0654C11.7832 11.3408 11.5635 11.5752 11.3115 11.7686C11.0596 11.9619 10.7988 12.1201 10.5293 12.2432C10.2598 12.3662 9.98438 12.457 9.70312 12.5156C9.42773 12.5742 9.16699 12.6035 8.9209 12.6035H0.105469V10.3184H8.9209C9.36035 10.3184 9.7002 10.1895 9.94043 9.93164C10.1865 9.67383 10.3096 9.32812 10.3096 8.89453C10.3096 8.68359 10.2773 8.49023 10.2129 8.31445C10.1484 8.13867 10.0547 7.98633 9.93164 7.85742C9.81445 7.72852 9.66797 7.62891 9.49219 7.55859C9.32227 7.48828 9.13184 7.45312 8.9209 7.45312H3.66504C3.2959 7.45312 2.89746 7.38867 2.46973 7.25977C2.04199 7.125 1.64355 6.91113 1.27441 6.61816C0.911133 6.3252 0.606445 5.94141 0.360352 5.4668C0.120117 4.99219 0 4.41211 0 3.72656C0 3.04102 0.120117 2.46387 0.360352 1.99512C0.606445 1.52051 0.911133 1.13672 1.27441 0.84375C1.64355 0.544922 2.04199 0.331055 2.46973 0.202148C2.89746 0.0673828 3.2959 0 3.66504 0H11.4434V2.28516H3.66504C3.23145 2.28516 2.8916 2.41699 2.64551 2.68066C2.40527 2.94434 2.28516 3.29297 2.28516 3.72656C2.28516 4.16602 2.40527 4.51465 2.64551 4.77246C2.8916 5.02441 3.23145 5.15039 3.66504 5.15039H8.9209H8.93848C9.18457 5.15625 9.44531 5.19141 9.7207 5.25586C9.99609 5.31445 10.2686 5.4082 10.5381 5.53711C10.8135 5.66602 11.0742 5.83008 11.3203 6.0293C11.5664 6.22266 11.7832 6.45703 11.9707 6.73242C12.1641 7.00781 12.3164 7.32422 12.4277 7.68164C12.5391 8.03906 12.5947 8.44336 12.5947 8.89453ZM27.0703 7.33008C27.0703 8.09766 26.9355 8.80371 26.666 9.44824C26.4023 10.0928 26.0361 10.6494 25.5674 11.1182C25.0986 11.5811 24.542 11.9443 23.8975 12.208C23.2529 12.4717 22.5527 12.6035 21.7969 12.6035H15.627C15.4629 12.6035 15.3105 12.5742 15.1699 12.5156C15.0293 12.457 14.9062 12.3779 14.8008 12.2783C14.7012 12.1729 14.6221 12.0498 14.5635 11.9092C14.5049 11.7686 14.4756 11.6162 14.4756 11.4521V1.15137C14.4756 0.993164 14.5049 0.84375 14.5635 0.703125C14.6221 0.5625 14.7012 0.439453 14.8008 0.333984C14.9062 0.228516 15.0293 0.146484 15.1699 0.0878906C15.3105 0.0292969 15.4629 0 15.627 0H21.7969C22.5527 0 23.2529 0.131836 23.8975 0.395508C24.542 0.65918 25.0986 1.02539 25.5674 1.49414C26.0361 1.95703 26.4023 2.51367 26.666 3.16406C26.9355 3.80859 27.0703 4.51172 27.0703 5.27344V7.33008ZM24.7852 5.27344C24.7852 4.82812 24.7119 4.4209 24.5654 4.05176C24.4248 3.68262 24.2227 3.36914 23.959 3.11133C23.6953 2.84766 23.3789 2.64551 23.0098 2.50488C22.6465 2.3584 22.2422 2.28516 21.7969 2.28516H16.7607V10.3184H21.7969C22.2422 10.3184 22.6465 10.248 23.0098 10.1074C23.3789 9.96094 23.6953 9.75879 23.959 9.50098C24.2227 9.2373 24.4248 8.92383 24.5654 8.56055C24.7119 8.19141 24.7852 7.78125 24.7852 7.33008V5.27344Z" fill="#FE6C06"/>
<path d="M47.6016 11.4521C47.6016 11.6162 47.5723 11.7686 47.5137 11.9092C47.4551 12.0498 47.373 12.1729 47.2676 12.2783C47.168 12.3779 47.0479 12.457 46.9072 12.5156C46.7666 12.5742 46.6143 12.6035 46.4502 12.6035H38.2061C37.9951 12.6035 37.7666 12.5801 37.5205 12.5332C37.2803 12.4805 37.04 12.4014 36.7998 12.2959C36.5654 12.1904 36.3398 12.0557 36.123 11.8916C35.9062 11.7217 35.7129 11.5195 35.543 11.2852C35.3789 11.0449 35.2471 10.7695 35.1475 10.459C35.0479 10.1426 34.998 9.78809 34.998 9.39551V3.20801C34.998 2.99707 35.0215 2.77148 35.0684 2.53125C35.1211 2.28516 35.2002 2.04492 35.3057 1.81055C35.4111 1.57031 35.5488 1.3418 35.7188 1.125C35.8887 0.908203 36.0908 0.717773 36.3252 0.553711C36.5654 0.383789 36.8408 0.249023 37.1514 0.149414C37.4619 0.0498047 37.8135 0 38.2061 0H47.4961V2.28516H38.2061C37.9072 2.28516 37.6787 2.36426 37.5205 2.52246C37.3623 2.68066 37.2832 2.91504 37.2832 3.22559V9.39551C37.2832 9.68848 37.3623 9.91699 37.5205 10.0811C37.6846 10.2393 37.9131 10.3184 38.2061 10.3184H45.3164V7.45312H39.2344V5.15039H46.4502C46.6143 5.15039 46.7666 5.18262 46.9072 5.24707C47.0479 5.30566 47.168 5.3877 47.2676 5.49316C47.373 5.59863 47.4551 5.72168 47.5137 5.8623C47.5723 5.99707 47.6016 6.14355 47.6016 6.30176V11.4521ZM62.3496 12.6035H60.0645V9.50977H52.0312V12.6035H49.7461V6.30176C49.7461 5.38184 49.9043 4.53516 50.2207 3.76172C50.5371 2.98828 50.9766 2.32324 51.5391 1.7666C52.1016 1.20996 52.7666 0.776367 53.5342 0.46582C54.3018 0.155273 55.1396 0 56.0479 0H61.1982C61.3564 0 61.5059 0.0292969 61.6465 0.0878906C61.7871 0.146484 61.9102 0.228516 62.0156 0.333984C62.1211 0.439453 62.2031 0.5625 62.2617 0.703125C62.3203 0.84375 62.3496 0.993164 62.3496 1.15137V12.6035ZM52.0312 7.22461H60.0645V2.28516H56.0479C55.9775 2.28516 55.8281 2.29687 55.5996 2.32031C55.377 2.33789 55.1162 2.3877 54.8174 2.46973C54.5244 2.55176 54.2139 2.67773 53.8857 2.84766C53.5576 3.01758 53.2559 3.25195 52.9805 3.55078C52.7051 3.84961 52.4766 4.22461 52.2949 4.67578C52.1191 5.12109 52.0312 5.66309 52.0312 6.30176V7.22461ZM77.6074 4.23633C77.6074 4.75781 77.543 5.22363 77.4141 5.63379C77.2852 6.04395 77.1094 6.40723 76.8867 6.72363C76.6699 7.03418 76.418 7.30078 76.1309 7.52344C75.8438 7.74609 75.542 7.93066 75.2256 8.07715C74.915 8.21777 74.5986 8.32031 74.2764 8.38477C73.96 8.44922 73.6611 8.48145 73.3799 8.48145L78.1523 12.6035H74.6191L69.8555 8.48145H68.2119V6.19629H73.3799C73.667 6.17285 73.9277 6.11426 74.1621 6.02051C74.4023 5.9209 74.6074 5.78906 74.7773 5.625C74.9531 5.46094 75.0879 5.26465 75.1816 5.03613C75.2754 4.80176 75.3223 4.53516 75.3223 4.23633V2.79492C75.3223 2.66602 75.3047 2.56934 75.2695 2.50488C75.2402 2.43457 75.1992 2.38477 75.1465 2.35547C75.0996 2.32031 75.0469 2.2998 74.9883 2.29395C74.9355 2.28809 74.8857 2.28516 74.8389 2.28516H67.2979V12.6035H65.0127V1.15137C65.0127 0.993164 65.042 0.84375 65.1006 0.703125C65.1592 0.5625 65.2383 0.439453 65.3379 0.333984C65.4434 0.228516 65.5664 0.146484 65.707 0.0878906C65.8477 0.0292969 66 0 66.1641 0H74.8389C75.3486 0 75.7793 0.09375 76.1309 0.28125C76.4824 0.462891 76.7666 0.694336 76.9834 0.975586C77.2061 1.25098 77.3643 1.5498 77.458 1.87207C77.5576 2.19434 77.6074 2.49609 77.6074 2.77734V4.23633ZM92.2676 12.6035H89.9824V9.50977H81.9492V12.6035H79.6641V6.30176C79.6641 5.38184 79.8223 4.53516 80.1387 3.76172C80.4551 2.98828 80.8945 2.32324 81.457 1.7666C82.0195 1.20996 82.6846 0.776367 83.4521 0.46582C84.2197 0.155273 85.0576 0 85.9658 0H91.1162C91.2744 0 91.4238 0.0292969 91.5645 0.0878906C91.7051 0.146484 91.8281 0.228516 91.9336 0.333984C92.0391 0.439453 92.1211 0.5625 92.1797 0.703125C92.2383 0.84375 92.2676 0.993164 92.2676 1.15137V12.6035ZM81.9492 7.22461H89.9824V2.28516H85.9658C85.8955 2.28516 85.7461 2.29687 85.5176 2.32031C85.2949 2.33789 85.0342 2.3877 84.7354 2.46973C84.4424 2.55176 84.1318 2.67773 83.8037 2.84766C83.4756 3.01758 83.1738 3.25195 82.8984 3.55078C82.623 3.84961 82.3945 4.22461 82.2129 4.67578C82.0371 5.12109 81.9492 5.66309 81.9492 6.30176V7.22461ZM107.367 11.4521C107.367 11.6162 107.338 11.7686 107.279 11.9092C107.221 12.0498 107.139 12.1729 107.033 12.2783C106.934 12.3779 106.813 12.457 106.673 12.5156C106.532 12.5742 106.38 12.6035 106.216 12.6035H97.9717C97.7607 12.6035 97.5322 12.5801 97.2861 12.5332C97.0459 12.4805 96.8057 12.4014 96.5654 12.2959C96.3311 12.1904 96.1055 12.0557 95.8887 11.8916C95.6719 11.7217 95.4785 11.5195 95.3086 11.2852C95.1445 11.0449 95.0127 10.7695 94.9131 10.459C94.8135 10.1426 94.7637 9.78809 94.7637 9.39551V3.20801C94.7637 2.99707 94.7871 2.77148 94.834 2.53125C94.8867 2.28516 94.9658 2.04492 95.0713 1.81055C95.1768 1.57031 95.3145 1.3418 95.4844 1.125C95.6543 0.908203 95.8564 0.717773 96.0908 0.553711C96.3311 0.383789 96.6064 0.249023 96.917 0.149414C97.2275 0.0498047 97.5791 0 97.9717 0H107.262V2.28516H97.9717C97.6729 2.28516 97.4443 2.36426 97.2861 2.52246C97.1279 2.68066 97.0488 2.91504 97.0488 3.22559V9.39551C97.0488 9.68848 97.1279 9.91699 97.2861 10.0811C97.4502 10.2393 97.6787 10.3184 97.9717 10.3184H105.082V7.45312H99V5.15039H106.216C106.38 5.15039 106.532 5.18262 106.673 5.24707C106.813 5.30566 106.934 5.3877 107.033 5.49316C107.139 5.59863 107.221 5.72168 107.279 5.8623C107.338 5.99707 107.367 6.14355 107.367 6.30176V11.4521ZM120.111 7.45312H112.896V5.15039H120.111V7.45312ZM121.14 12.6035H112.896C112.579 12.6035 112.233 12.5479 111.858 12.4365C111.483 12.3252 111.135 12.1436 110.812 11.8916C110.496 11.6338 110.229 11.3027 110.013 10.8984C109.802 10.4883 109.696 9.9873 109.696 9.39551V1.15137C109.696 0.993164 109.726 0.84375 109.784 0.703125C109.843 0.5625 109.922 0.439453 110.021 0.333984C110.127 0.228516 110.25 0.146484 110.391 0.0878906C110.531 0.0292969 110.684 0 110.848 0H121.14V2.28516H111.981V9.39551C111.981 9.69434 112.061 9.92285 112.219 10.0811C112.377 10.2393 112.608 10.3184 112.913 10.3184H121.14V12.6035Z" fill="white"/>
</svg>
